<svg width="32" height="32" viewBox="0 0 32 32" fill="none" xmlns="http://www.w3.org/2000/svg">
<g clip-path="url(#clip0_370_31)">
<path d="M16.6359 32C16.4413 32 16.2599 31.9974 16.2599 31.9974L16.2653 31.7334C16.2653 31.7334 16.6626 31.7414 16.9159 31.7334C17.9371 31.7067 18.6597 31.5654 19.5663 31.3627C26.7311 29.7654 31.736 23.4614 31.736 16.0294V6.74402H32V16.032C32 23.5867 26.9097 29.9974 19.625 31.6214C18.7051 31.8214 17.9718 31.968 16.9239 31.9974C16.8359 31.9974 16.7372 32 16.6359 32Z" fill="black"/>
<path d="M0.263978 25.256H0V15.968C0 8.41602 5.17557 2.00269 12.5856 0.378686C13.5215 0.178686 14.2655 0.0320191 15.3294 0.0026858C15.5907 -0.0053142 16.0013 0.0026858 16.0013 0.0026858L15.996 0.266686C15.996 0.266686 15.5934 0.258686 15.3347 0.266686C14.2948 0.293352 13.5642 0.437352 12.6389 0.637352C5.35422 2.23469 0.263978 8.54135 0.263978 15.968V25.256Z" fill="black"/>
<path d="M16.268 32H16.004V31.736H16.268V32ZM15.6974 28.888L15.6707 28.7574C14.1588 21.5227 7.67936 16.2694 0.266644 16.2694H0V16.0054H0.266644C3.01575 16.0054 5.60487 15.3307 7.95934 14.0027L8.07666 13.936L8.20732 14.1654L8.08999 14.232C6.29814 15.2454 4.3703 15.8827 2.33847 16.1387C8.98325 17.0107 14.5348 22.0294 15.9293 28.704L15.956 28.8347L15.6974 28.888ZM31.7334 16.2694C24.206 16.1414 17.7425 10.7414 16.3 3.36536C16.18 3.35736 16.0893 3.35469 15.9667 3.35469C15.2867 6.82136 13.5295 9.89336 10.8764 12.2374L10.7778 12.3254L10.6045 12.128L10.7031 12.04C13.3402 9.70936 15.0761 6.65069 15.7294 3.19736L15.7507 3.08803H15.86C16.076 3.08803 16.204 3.08803 16.4226 3.10669L16.524 3.11469L16.5426 3.21603C17.9318 10.5627 24.3793 15.9387 31.8693 16.0027H32.0027V16.2667H31.736L31.7334 16.2694Z" fill="black"/>
<path d="M6.70077 31.9973C3.00508 31.9973 0 28.9893 0 25.2933C0 21.5973 3.00508 18.592 6.70077 18.592C10.3965 18.592 13.4015 21.6 13.4015 25.2933C13.4015 26.2587 13.2016 27.1893 12.8069 28.0667C13.7029 28.3867 14.6761 28.576 15.7027 28.624C15.8813 28.632 16.06 28.6347 16.2466 28.6347C23.2541 28.6347 23.8007 23.9253 23.8007 22.48C23.8007 18.696 20.2036 17.984 16.0387 17.1627C13.0096 16.5653 9.89784 15.9493 7.82601 14.0667C6.27681 12.656 5.52221 10.7253 5.52221 8.16267C5.52221 4.408 8.16465 1.43733 12.423 0.408L12.519 0.384L12.7776 0.330667C13.1562 0.250667 13.5535 0.184 13.9668 0.128C14.1002 0.112 14.2335 0.0986667 14.3668 0.0853333C14.5828 0.064 14.8654 0.04 15.1481 0.0293333C15.1614 0.0293333 15.1854 0.0266667 15.2067 0.0266667C15.2894 0.0186667 15.3907 0.016 15.4867 0.0133333C17.7692 -0.0666667 19.7504 0.357333 21.3982 1.25333C22.5368 0.434667 23.886 0 25.2966 0C28.9923 0 31.9973 3.008 31.9973 6.70133C31.9973 10.3947 28.9923 13.4027 25.2966 13.4027C21.6009 13.4027 18.5958 10.3947 18.5958 6.70133C18.5958 5.768 18.7824 4.86667 19.1504 4.02933C18.3131 3.648 17.3506 3.42667 16.292 3.37067C16.1267 3.36267 16.052 3.36 15.884 3.36H15.588C11.3857 3.39733 8.87926 5.23467 8.87926 8.27467C8.87926 9.87467 9.46854 11.0747 10.6844 11.9413C12.183 13.0133 14.4361 13.4827 16.8199 13.976C21.6569 14.9733 27.1177 16.1067 27.1177 22.8507C27.1177 27.5787 24.9793 29.328 23.1181 30.3227C22.5954 30.584 22.0542 30.8187 21.5022 31.0213L21.4729 31.032C19.953 31.5547 18.1372 32.0347 15.9507 31.992C13.7669 31.9493 12.0977 31.6 10.4791 30.8267C9.36722 31.5893 8.06066 31.992 6.70344 31.992L6.70077 31.9973ZM10.4525 30.5173L10.5218 30.552C12.119 31.3307 13.7775 31.68 15.94 31.7253C18.1052 31.7707 19.9183 31.2827 21.4009 30.7733C21.9502 30.5707 22.4808 30.3413 22.9928 30.0853C26.4085 28.2587 26.8458 25.264 26.8458 22.856C26.8458 16.3307 21.7289 15.272 16.7799 14.2507C14.3481 13.7467 12.0683 13.2747 10.5245 12.168C9.2339 11.2453 8.60728 9.97333 8.60728 8.27733C8.60728 5.06933 11.2124 3.13067 15.58 3.09333H15.8813C16.0573 3.09333 16.1347 3.09333 16.3 3.10133C17.4492 3.16 18.4838 3.408 19.3824 3.84267L19.5024 3.89867L19.4464 4.02133C19.0597 4.86133 18.8624 5.76267 18.8624 6.704C18.8624 10.2507 21.7475 13.1333 25.2939 13.1333C28.8403 13.1333 31.7254 10.248 31.7254 6.704C31.7254 3.16 28.8429 0.274667 25.2966 0.274667C23.9153 0.274667 22.5981 0.706667 21.4835 1.52L21.4142 1.57067L21.3396 1.53067C19.841 0.698667 18.0465 0.274667 15.996 0.274667C15.828 0.274667 15.6227 0.282667 15.5 0.282667C15.3774 0.282667 15.2974 0.290667 15.1694 0.296C14.8654 0.312 14.5988 0.333333 14.3908 0.352C14.2601 0.365333 14.1268 0.378667 13.9962 0.394667C13.5935 0.445333 13.2016 0.514667 12.8283 0.589333L12.5003 0.661333C8.3593 1.65867 5.78885 4.53067 5.78885 8.15733C5.78885 10.64 6.51146 12.5067 8.002 13.8613C10.0152 15.6933 13.0922 16.3013 16.0653 16.8907C20.1877 17.704 24.062 18.4693 24.062 22.48C24.062 23.9867 23.4967 28.9067 16.2413 28.9067C16.052 28.9067 15.8707 28.904 15.6867 28.896C14.5801 28.8427 13.5295 28.632 12.5723 28.2693L12.4363 28.2187L12.5003 28.0853C12.9189 27.208 13.1322 26.2693 13.1322 25.296C13.1322 21.7493 10.2471 18.8667 6.70077 18.8667C3.1544 18.8667 0.269311 21.7493 0.269311 25.2933C0.269311 28.8373 3.1544 31.7253 6.70077 31.7253C8.03133 31.7253 9.30589 31.3227 10.3885 30.5627L10.4525 30.5173Z" fill="black"/>
<path d="M10.4525 30.5173L10.5218 30.552C12.119 31.3307 13.7776 31.68 15.94 31.7253C18.1052 31.7707 19.9184 31.2827 21.4009 30.7733C21.9502 30.5707 22.4808 30.3413 22.9928 30.0853C26.4085 28.2587 26.8458 25.264 26.8458 22.856C26.8458 16.3307 21.7289 15.272 16.78 14.2507C14.3482 13.7467 12.0684 13.2747 10.5245 12.168C9.23393 11.2453 8.60732 9.97334 8.60732 8.27734C8.60732 5.06934 11.2124 3.13068 15.5801 3.09334H15.8814C16.0574 3.09334 16.1347 3.09334 16.3 3.10134C17.4492 3.16001 18.4838 3.40801 19.3824 3.84268L19.5024 3.89868L19.4464 4.02134C19.0598 4.86134 18.8625 5.76268 18.8625 6.70401C18.8625 10.2507 21.7476 13.1333 25.2939 13.1333C28.8403 13.1333 31.7254 10.248 31.7254 6.70401C31.7254 3.16001 28.843 0.274677 25.2966 0.274677C23.9154 0.274677 22.5982 0.706677 21.4836 1.52001L21.4142 1.57068L21.3396 1.53068C19.841 0.698677 18.0465 0.274677 15.996 0.274677C15.8281 0.274677 15.6227 0.282677 15.5001 0.282677C15.3774 0.282677 15.2974 0.290677 15.1694 0.296011C14.8655 0.312011 14.5988 0.333344 14.3908 0.352011C14.2602 0.365344 14.1269 0.378677 13.9962 0.394677C13.5936 0.445344 13.2016 0.514677 12.8283 0.589344L12.5003 0.661344C8.35934 1.65868 5.78889 4.53068 5.78889 8.15734C5.78889 10.64 6.51149 12.5067 8.00204 13.8613C10.0152 15.6933 13.0923 16.3013 16.0654 16.8907C20.1877 17.704 24.062 18.4693 24.062 22.48C24.062 23.9867 23.4967 28.9067 16.2413 28.9067C16.052 28.9067 15.8707 28.904 15.6867 28.896C14.5802 28.8427 13.5296 28.632 12.5723 28.2693L12.4363 28.2187L12.5003 28.0853C12.919 27.208 13.1323 26.2693 13.1323 25.296C13.1323 21.7493 10.2472 18.8667 6.70081 18.8667C3.15444 18.8667 0.269348 21.7493 0.269348 25.2933C0.269348 28.8373 3.15444 31.7253 6.70081 31.7253C8.03137 31.7253 9.30593 31.3227 10.3885 30.5627L10.4525 30.5173Z" fill="#1CBDAF"/>
</g>
<defs>
<clipPath id="clip0_370_31">
<rect width="32" height="32" fill="white"/>
</clipPath>
</defs>
</svg>
