<svg width="126" height="143" viewBox="0 0 126 143" fill="none" xmlns="http://www.w3.org/2000/svg">
<path d="M94.6581 4.10201C98.9196 2.09748 101.363 1.40473 106.717 0.682854C108.696 0.416069 115.088 0.820835 116.789 1.32054C121.11 2.59054 124.465 6.45118 124.465 10.1555C124.465 14.3557 120.874 17.6558 114.478 19.3347C113.29 19.6468 112.318 19.9613 112.318 20.0341C112.318 20.1069 112.661 20.6199 113.08 21.1741C114.734 23.3574 114.426 25.0255 111.966 27.2123C109.947 29.0077 107 30.6831 99.1962 34.4734C90.8036 38.5496 88.6165 39.7854 84.6276 42.7052C81.3755 45.0857 80.5062 46.0101 82.4447 45.0275C84.1415 44.167 89.4211 42.6593 92.6355 42.1169C103.503 40.2832 113.168 43.1802 119.874 50.2812C122.414 52.9706 123.914 55.5216 124.669 58.437C126.579 65.8092 119.948 70.3395 111.95 67.126C110.859 66.6877 109.941 66.3291 109.91 66.3291C109.879 66.3291 109.419 67.0187 108.889 67.8618C107.732 69.703 106.288 70.8354 104.225 71.5183C102.32 72.1494 100.926 72.1582 98.5683 71.5541C96.0746 70.9151 94.3131 69.8888 91.3656 67.3574C85.2418 62.0982 83.6835 61.2656 79.9657 61.2656C75.1953 61.2656 72.1009 62.9999 67.4073 68.3042C63.6735 72.5241 59.8782 73.3972 56.818 70.7401C54.5548 68.7751 54.5868 66.2174 56.9915 56.835C60.0789 44.7888 59.9995 40.5048 56.5575 33.4743C54.2453 28.751 50.8811 24.4866 47.2782 21.7114C46.7981 21.3418 45.286 20.5253 43.9178 19.8968C41.7432 18.898 41.108 18.7512 38.87 18.729C35.011 18.6907 31.8273 20.0218 31.2186 21.9279C30.6912 23.5792 33.0892 24.5505 37.7006 24.553C41.2664 24.5552 42.3823 25.0347 42.9149 26.7927C43.3597 28.2602 42.6761 29.6919 41.2853 30.2068L39.9591 30.6983L39.3113 30.9385C35.2325 32.4525 37.2304 37.3723 42.4553 38.6797C51.4572 40.9326 55.1468 43.8888 56.3207 49.7888C56.9451 52.9272 56.4622 53.2864 55.144 50.6638C52.8848 46.168 50.596 44.8619 43.1904 43.8429C37.8795 43.1122 34.0445 41.2127 32.0673 38.3341C31.2906 37.2033 31.1892 36.7628 31.1892 34.5238C31.1892 32.5373 31.3444 31.6809 31.9092 30.547C32.3054 29.7523 32.6293 28.9441 32.6293 28.7507C32.6293 28.5573 31.8648 27.9665 30.9306 27.438C27.3757 25.4265 24.9485 22.0048 24.9485 19.0043C24.9485 16.0061 27.2025 13.1911 30.6838 11.842C33.1513 10.8859 39.2527 10.6568 42.1897 11.4103C48.0914 12.9243 52.9444 15.7542 57.6092 20.4012C60.9381 23.7179 62.3447 25.655 64.5088 29.9046C65.9073 32.6506 66.3835 34.0203 67.4358 38.3214C68.4909 42.6349 67.9981 55.4663 66.6427 58.9585C66.4238 59.5228 66.4254 59.5218 69.1307 57.7047C75.8712 53.1772 85.8149 53.8576 91.5176 59.2364C92.5062 60.1687 93.8414 61.1491 94.485 61.415C96.7802 62.3634 99.8362 61.777 99.8362 60.388C99.8362 60.0991 99.6029 59.2589 99.3181 58.5208C98.3759 56.0818 99.2627 54.1383 101.477 53.7896C102.378 53.6475 102.926 53.8595 104.782 55.0691C107.123 56.5938 108.956 56.9872 109.322 56.0432C110.152 53.9038 105.394 49.5748 99.9962 47.5589C91.9682 44.5607 83.7987 46.1066 74.1017 52.4591C72.4593 53.5351 71.1302 54.2092 70.968 54.0488C70.2623 53.351 73.4239 46.5766 76.1567 42.9321C78.0679 40.3832 82.6152 35.8419 85.1147 33.9867C86.9229 32.6442 91.3506 29.6789 95.5158 27.0205C100.685 23.721 101.679 22.3171 99.9668 20.7332C97.9099 18.8306 98.2591 18.3502 102.725 16.9413C107.404 15.4655 109.609 13.574 108.574 11.9261C108.076 11.1331 106.265 10.0292 104.828 9.64374C100.171 8.39305 92.294 11.7796 86.4051 17.5638C79.8153 24.0372 75.8302 31.8154 72.3249 45.0464C71.6788 47.4861 71.2771 46.6316 71.5066 43.3058C72.0583 35.3127 73.84 27.5674 76.2008 22.8979C80.1107 15.1649 87.8123 7.32179 94.6581 4.10201Z" fill="#FFFBFF"/>
<path d="M20.8479 51.667C22.8107 50.941 26.3589 50.0296 28.3089 49.7502C28.8369 49.6745 31.6452 49.6473 34.5495 49.69C39.2841 49.7593 40.0122 49.8448 41.5902 50.5138C45.293 52.0835 46.7108 53.8773 46.7108 56.9932C46.7108 60.1785 44.8923 62.5024 41.9039 63.1363C41.01 63.3258 38.0136 63.4809 35.2456 63.4809C29.2575 63.4809 25.7243 63.8727 22.7902 64.8623C16.6066 66.9475 12.2554 70.3455 10.0142 74.8387C9.19843 76.4746 9.1277 76.9138 9.11778 80.4121C9.10818 83.7876 9.19779 84.4228 9.92426 86.1251C11.4575 89.7183 13.7464 92.5703 20.95 99.8647C28.5851 107.596 29.854 109.117 31.409 112.403C32.301 114.288 32.4344 114.911 32.4507 117.268C32.4821 121.842 30.7888 124.898 25.539 129.742C23.918 131.238 22.6699 132.539 22.7656 132.634C23.1423 133.006 28.5534 133.416 33.1177 133.419C40.2599 133.422 46.4445 132.511 52.753 130.524C72.5086 124.303 84.2109 108.707 81.1181 92.7219C80.7693 90.9193 80.007 88.9834 78.2721 85.4943C74.985 78.8842 74.6596 77.4917 75.8139 74.978C77.5763 71.1392 81.9736 69.4056 85.8169 71.0348C88.6396 72.2313 92.1951 77.2325 94.0948 82.6781C95.8131 87.6033 96.1213 89.3993 96.1222 94.4951C96.1238 100.621 95.4223 103.559 92.6345 109.104C84.2113 125.857 59.1732 138.818 30.3891 141.327C24.2579 141.861 14.5599 141.636 9.7028 140.848C8.25817 140.613 7.02669 139.281 7.02669 137.952C7.02669 136.532 8.02999 135.565 10.2469 134.847C12.8772 133.997 13.7435 133.48 15.536 131.693C17.8963 129.341 18.682 127.213 18.6967 123.136C18.713 118.572 17.936 116.823 12.9332 110.16C9.15778 105.132 7.91766 103.253 6.1434 99.8751C2.30556 92.5671 0.654833 85.6304 1.05967 78.5133C1.50452 70.6961 4.29585 64.3281 9.58695 59.0598C12.4487 56.2106 13.2251 55.5476 14.4422 54.9134C14.8521 54.6998 15.2595 54.4225 15.3475 54.2972C15.6013 53.9364 18.6394 52.4835 20.8479 51.667Z" fill="#FFFBFF"/>
<path d="M39.3113 30.9385C35.2325 32.4525 37.2304 37.3723 42.4553 38.6797C51.4572 40.9326 55.1468 43.8888 56.3207 49.7888C56.9451 52.9272 56.4622 53.2864 55.144 50.6638C52.8848 46.168 50.596 44.8619 43.1904 43.8429C37.8795 43.1122 34.0445 41.2127 32.0673 38.3341C31.2906 37.2033 31.1892 36.7628 31.1892 34.5238C31.1892 32.5373 31.3444 31.6809 31.9092 30.547C32.3054 29.7523 32.6293 28.9441 32.6293 28.7507C32.6293 28.5573 31.8648 27.9665 30.9306 27.438C27.3757 25.4265 24.9485 22.0048 24.9485 19.0043C24.9485 16.0061 27.2025 13.1911 30.6838 11.842C33.1513 10.8859 39.2527 10.6568 42.1897 11.4103C48.0914 12.9243 52.9444 15.7542 57.6092 20.4012C60.9381 23.7179 62.3447 25.655 64.5088 29.9046C65.9073 32.6506 66.3835 34.0203 67.4358 38.3214C68.4909 42.6349 67.9981 55.4663 66.6427 58.9585C66.4238 59.5228 66.4254 59.5218 69.1307 57.7047C75.8712 53.1772 85.8149 53.8576 91.5176 59.2364C92.5062 60.1687 93.8414 61.1491 94.485 61.415C96.7802 62.3634 99.8362 61.777 99.8362 60.388C99.8362 60.0991 99.6029 59.2589 99.3181 58.5208C98.3759 56.0818 99.2627 54.1383 101.477 53.7896C102.378 53.6475 102.926 53.8595 104.782 55.0691C107.123 56.5938 108.956 56.9872 109.322 56.0432C110.152 53.9038 105.394 49.5748 99.9962 47.5589C91.9682 44.5607 83.7987 46.1066 74.1017 52.4591C72.4593 53.5351 71.1302 54.2092 70.968 54.0488C70.2623 53.351 73.4239 46.5766 76.1567 42.9321C78.0679 40.3832 82.6153 35.8419 85.1147 33.9867C86.9229 32.6442 91.3506 29.6789 95.5158 27.0205C100.685 23.721 101.679 22.3171 99.9668 20.7332C97.9099 18.8306 98.2591 18.3502 102.725 16.9413C107.404 15.4655 109.609 13.574 108.574 11.9261C108.076 11.1331 106.265 10.0292 104.828 9.64374C100.171 8.39305 92.294 11.7796 86.4051 17.5638C79.8153 24.0372 75.8302 31.8154 72.3249 45.0464C71.6788 47.4861 71.2771 46.6316 71.5066 43.3058C72.0583 35.3127 73.84 27.5674 76.2008 22.8979C80.1107 15.1649 87.8123 7.32179 94.6581 4.10201C98.9197 2.09748 101.363 1.40473 106.717 0.682854C108.696 0.416069 115.088 0.820835 116.789 1.32054C121.11 2.59054 124.465 6.45118 124.465 10.1555C124.465 14.3557 120.874 17.6558 114.478 19.3347C113.29 19.6468 112.318 19.9613 112.318 20.0341C112.318 20.1069 112.661 20.6199 113.08 21.1741C114.734 23.3574 114.426 25.0255 111.966 27.2123C109.947 29.0077 107 30.6831 99.1962 34.4734C90.8036 38.5496 88.6165 39.7854 84.6276 42.7052C81.3754 45.0857 80.5063 46.0101 82.4447 45.0274C84.1415 44.167 89.4211 42.6593 92.6355 42.1169C103.503 40.2832 113.168 43.1802 119.874 50.2812C122.414 52.9706 123.914 55.5216 124.669 58.437C126.579 65.8092 119.948 70.3395 111.95 67.126C110.859 66.6877 109.941 66.3291 109.91 66.3291C109.879 66.3291 109.419 67.0187 108.889 67.8618C107.732 69.703 106.288 70.8354 104.225 71.5183C102.32 72.1494 100.926 72.1582 98.5683 71.5541C96.0746 70.9151 94.3131 69.8888 91.3656 67.3574C85.2418 62.0982 83.6835 61.2656 79.9657 61.2656C75.1953 61.2656 72.1009 62.9999 67.4073 68.3042C63.6735 72.5241 59.8782 73.3972 56.818 70.7401C54.5548 68.7751 54.5868 66.2174 56.9915 56.835C60.0789 44.7888 59.9995 40.5048 56.5575 33.4743C54.2453 28.751 50.8811 24.4866 47.2782 21.7114C46.7981 21.3418 45.286 20.5253 43.9178 19.8968C41.7432 18.898 41.108 18.7512 38.87 18.729C35.011 18.6907 31.8273 20.0218 31.2186 21.9279C30.6912 23.5792 33.0892 24.5505 37.7006 24.553C41.2664 24.5552 42.3823 25.0347 42.9149 26.7927C43.3597 28.2602 42.6761 29.6919 41.2852 30.2068C40.9305 30.3382 40.4218 30.5267 39.9591 30.6983M39.3113 30.9385C39.4973 30.8695 39.7222 30.7861 39.9591 30.6983M39.3113 30.9385L39.9591 30.6983M28.3089 49.7502C26.3589 50.0296 22.8107 50.941 20.8479 51.667C18.6394 52.4835 15.6013 53.9364 15.3475 54.2972C15.2595 54.4225 14.8521 54.6998 14.4422 54.9134C13.2251 55.5476 12.4487 56.2106 9.58695 59.0598C4.29585 64.3281 1.50452 70.6961 1.05967 78.5133C0.654833 85.6304 2.30556 92.5671 6.1434 99.8751C7.91766 103.253 9.15778 105.132 12.9332 110.16C17.936 116.823 18.713 118.572 18.6967 123.136C18.682 127.213 17.8963 129.341 15.536 131.693C13.7435 133.48 12.8772 133.997 10.2469 134.847C8.02999 135.565 7.02669 136.532 7.02669 137.952C7.02669 139.281 8.25817 140.613 9.7028 140.848C14.5599 141.636 24.2579 141.861 30.3891 141.327C59.1732 138.818 84.2113 125.857 92.6345 109.104C95.4223 103.559 96.1238 100.621 96.1222 94.4951C96.1213 89.3993 95.8131 87.6033 94.0948 82.6781C92.1951 77.2325 88.6396 72.2313 85.8169 71.0348C81.9736 69.4056 77.5763 71.1392 75.8139 74.978C74.6596 77.4917 74.985 78.8842 78.2721 85.4943C80.007 88.9834 80.7693 90.9193 81.1181 92.7219C84.2109 108.707 72.5086 124.303 52.753 130.524C46.4445 132.511 40.2599 133.422 33.1177 133.419C28.5534 133.416 23.1423 133.006 22.7656 132.634C22.6699 132.539 23.918 131.238 25.539 129.742C30.7888 124.898 32.4821 121.842 32.4507 117.268C32.4344 114.911 32.301 114.288 31.409 112.403C29.854 109.117 28.5851 107.596 20.95 99.8647C13.7464 92.5703 11.4575 89.7183 9.92427 86.1251C9.19779 84.4228 9.10818 83.7876 9.11778 80.4121C9.1277 76.9138 9.19843 76.4746 10.0142 74.8387C12.2554 70.3455 16.6066 66.9475 22.7902 64.8623C25.7243 63.8727 29.2575 63.4809 35.2456 63.4809C38.0136 63.4809 41.01 63.3258 41.9039 63.1363C44.8923 62.5024 46.7108 60.1785 46.7108 56.9932C46.7108 53.8773 45.293 52.0835 41.5902 50.5138C40.0122 49.8448 39.2841 49.7593 34.5495 49.69C31.6452 49.6473 28.8369 49.6745 28.3089 49.7502Z" stroke="black" stroke-width="1.21569"/>
<path d="M95.3551 17.687C90.9464 18.2782 88.9339 18.8456 85.4243 20.4872C79.7866 23.1241 73.4441 29.5473 70.2242 35.8804C68.28 39.7046 66.8128 46.0477 66.3584 52.5938C66.1694 55.3175 66.5002 56.0173 67.0323 54.0193C69.919 43.1835 73.2008 36.8134 78.6277 31.5119C83.4774 26.7749 89.9646 24.0014 93.7999 25.0257C94.9827 25.3414 96.4742 26.2454 96.8846 26.8949C97.7372 28.2445 95.9207 29.7936 92.0681 31.0021C88.3899 32.156 88.1023 32.5494 89.7962 34.1076C91.2065 35.4048 90.3879 36.5545 86.1307 39.2567C82.7005 41.4338 79.0542 43.8623 77.5651 44.9618C75.5067 46.4811 71.7618 50.2003 70.1879 52.2877C67.9374 55.2724 65.3337 60.8204 65.9148 61.3919C66.0484 61.5233 67.143 60.9713 68.4956 60.09C76.4813 54.8875 83.2091 53.6214 89.8205 56.0769C94.2653 57.7279 98.1839 61.2732 97.5002 63.0252C97.1987 63.7984 95.6893 63.4762 93.7614 62.2275C92.2328 61.2369 91.7816 61.0633 91.0397 61.1796C89.2164 61.4652 88.4861 63.0569 89.262 65.0544C89.4965 65.6588 89.6887 66.3469 89.6887 66.5835C89.6887 67.7211 87.172 68.2013 85.2817 67.4246C84.7517 67.2068 83.6522 66.4039 82.8381 65.6404C78.1417 61.2354 69.9528 60.6781 64.4017 64.3859C62.1739 65.8741 62.1726 65.8749 62.3529 65.4128C63.469 62.5528 63.8749 52.0443 63.006 48.5117C62.1394 44.9892 61.7472 43.8675 60.5955 41.6186C58.8133 38.1384 57.655 36.5519 54.9134 33.8357C51.0718 30.0299 47.0753 27.7124 42.215 26.4724C39.7964 25.8553 34.7717 26.043 32.7396 26.826C29.8727 27.9308 28.0164 30.2362 28.0164 32.6917C28.0164 35.149 30.0153 37.9512 32.9428 39.5986C33.7122 40.0314 34.3418 40.5153 34.3418 40.6736C34.3418 40.832 34.0751 41.4939 33.7488 42.1447C33.2836 43.0734 33.1558 43.7747 33.1558 45.4016C33.1558 47.2353 33.2393 47.5961 33.879 48.5221C35.5073 50.8796 38.6655 52.4352 43.0392 53.0336C49.1379 53.8682 51.0228 54.9378 52.8833 58.6197C53.9689 60.7675 54.3666 60.4734 53.8524 57.9031C52.8857 53.0712 49.8471 50.6502 42.4338 48.8051C38.131 47.7345 36.4856 43.7053 39.8446 42.4653L40.3781 42.2686C40.7592 42.1281 41.1781 41.9738 41.4702 41.8661C42.6156 41.4444 43.1786 40.2719 42.8123 39.0701C42.3737 37.6304 41.4547 37.2377 38.5181 37.2359C34.7205 37.2338 32.7457 36.4384 33.18 35.086C33.6813 33.525 36.3032 32.4349 39.4812 32.4662C41.3242 32.4844 41.8474 32.6046 43.6382 33.4226C44.7649 33.9373 46.0103 34.606 46.4056 34.9087C49.3727 37.1815 52.1432 40.6739 54.0474 44.5422C56.882 50.2998 56.9473 53.8083 54.4048 63.6737C52.4244 71.3576 52.3981 73.4523 54.2619 75.0615C56.7821 77.2376 59.9076 76.5225 62.9825 73.0666C66.8478 68.7225 69.3961 67.3022 73.3247 67.3022C76.3865 67.3022 77.6697 67.9841 82.7129 72.2912C85.1402 74.3643 86.5908 75.2049 88.6445 75.7281C90.5863 76.2229 91.7344 76.2157 93.3034 75.6988C95.0017 75.1395 96.1911 74.2122 97.1442 72.7043C97.5806 72.0138 97.9588 71.4491 97.9846 71.4491C98.0105 71.4491 98.7666 71.7427 99.6648 72.1017C106.251 74.7334 111.712 71.0233 110.139 64.9857C109.517 62.5981 108.282 60.5089 106.19 58.3064C100.668 52.4909 92.708 50.1184 83.7587 51.6201C81.1115 52.0643 76.7636 53.299 75.3662 54.0037C73.7699 54.8085 74.4857 54.0514 77.1639 52.1019C80.4489 49.7107 82.2501 48.6986 89.1616 45.3604C95.5887 42.2562 98.0155 40.8841 99.6783 39.4138C101.704 37.6228 101.957 36.2567 100.596 34.4686C100.25 34.0148 99.9674 33.5947 99.9674 33.5351C99.9674 33.4755 100.768 33.2178 101.746 32.9623C107.014 31.5873 109.971 28.8846 109.971 25.4448C109.971 22.4111 107.209 19.2494 103.65 18.2093C102.249 17.8001 96.9852 17.4686 95.3551 17.687Z" fill="#60BE00"/>
<path d="M30.7838 57.8715C29.1779 58.1003 26.2559 58.8468 24.6395 59.4413C22.8207 60.11 20.3188 61.2999 20.1098 61.5954C20.0373 61.698 19.7018 61.925 19.3642 62.1C18.3618 62.6194 17.7225 63.1624 15.3657 65.4957C11.0084 69.8103 8.70962 75.0255 8.34327 81.4275C8.00987 87.2562 9.3693 92.9371 12.5299 98.9221C13.991 101.689 15.0123 103.227 18.1215 107.345C22.2414 112.802 22.8813 114.234 22.8679 117.972C22.8557 121.311 22.2087 123.053 20.265 124.98C18.7888 126.444 18.0754 126.867 15.9092 127.563C14.0835 128.15 13.2573 128.943 13.2573 130.106C13.2573 131.194 14.2714 132.285 15.4611 132.477C19.4611 133.123 27.4477 133.307 32.4969 132.869C56.2015 130.815 76.8211 120.2 83.7579 106.48C86.0537 101.939 86.6314 99.533 86.6301 94.516C86.6293 90.3427 86.3755 88.8719 84.9605 84.8383C83.396 80.3786 80.4679 76.2828 78.1433 75.3028C74.9783 73.9686 71.357 75.3884 69.9056 78.5322C68.9549 80.5909 69.223 81.7312 71.93 87.1447C73.3587 90.0022 73.9865 91.5876 74.2738 93.0639C76.8208 106.155 67.1836 118.928 50.9142 124.023C45.719 125.649 40.6258 126.396 34.744 126.393C30.9851 126.391 26.5289 126.055 26.2187 125.75C26.1399 125.673 27.1678 124.607 28.5027 123.382C32.8261 119.415 34.2206 116.912 34.1947 113.166C34.1813 111.236 34.0714 110.726 33.3369 109.182C32.0562 106.491 31.0112 105.245 24.7236 98.9135C18.7912 92.9397 16.9062 90.604 15.6435 87.6613C15.0453 86.2671 14.9715 85.747 14.9794 82.9826C14.9875 80.1176 15.0458 79.7579 15.7176 78.4182C17.5633 74.7383 21.1466 71.9555 26.239 70.2478C28.6553 69.4373 31.565 69.1165 36.4964 69.1165C38.7759 69.1165 41.2436 68.9895 41.9797 68.8342C44.4408 68.3151 45.9383 66.4119 45.9383 63.8033C45.9383 61.2514 44.7707 59.7824 41.7214 58.4969C40.4218 57.949 39.8222 57.879 35.9231 57.8222C33.5314 57.7872 31.2187 57.8095 30.7838 57.8715Z" fill="#FDAE47"/>
</svg>
