<svg width="72" height="80" viewBox="0 0 72 80" fill="none" xmlns="http://www.w3.org/2000/svg">
<path d="M61.384 0.0480555C58.2755 0.457571 56.8566 0.850569 54.3821 1.98773C50.4071 3.8143 45.9352 8.26368 43.665 12.6506C42.2942 15.2996 41.2597 19.6935 40.9393 24.228C40.8061 26.1147 41.0393 26.5994 41.4145 25.2154C43.4498 17.7095 45.7637 13.2969 49.5901 9.62454C53.0094 6.34321 57.5833 4.42202 60.2875 5.13154C61.1215 5.35021 62.173 5.97642 62.4624 6.42633C63.0635 7.36116 61.7828 8.43423 59.0664 9.2714C56.473 10.0707 56.2703 10.3432 57.4646 11.4226C58.459 12.3211 57.8818 13.1175 54.8801 14.9893C52.4616 16.4974 49.8907 18.1797 48.8408 18.9412C47.3895 19.9937 44.7491 22.57 43.6394 24.0159C42.0526 26.0834 40.2168 29.9265 40.6266 30.3224C40.7208 30.4134 41.4925 30.031 42.4462 29.4206C48.0767 25.8168 52.8203 24.9398 57.4817 26.6407C60.6156 27.7843 63.3785 30.2402 62.8965 31.4538C62.6839 31.9894 61.6197 31.7662 60.2603 30.9012C59.1826 30.215 58.8644 30.0947 58.3413 30.1753C57.0558 30.3732 56.5409 31.4757 57.0879 32.8594C57.2533 33.278 57.3888 33.7547 57.3888 33.9186C57.3888 34.7066 55.6143 35.0393 54.2816 34.5012C53.9079 34.3504 53.1326 33.7942 52.5586 33.2653C49.2474 30.214 43.4736 29.828 39.5597 32.3964C37.989 33.4272 37.988 33.4278 38.1151 33.1077C38.9021 31.1265 39.1883 23.8473 38.5756 21.4003C37.9646 18.9603 37.6881 18.1832 36.8761 16.6254C35.6195 14.2147 34.8028 13.1157 32.8698 11.2342C30.1612 8.59797 27.3434 6.99258 23.9166 6.13369C22.2113 5.70622 18.6685 5.83621 17.2358 6.37858C15.2144 7.14393 13.9056 8.74087 13.9056 10.4418C13.9056 12.1439 15.3149 14.085 17.3791 15.2262C17.9215 15.526 18.3654 15.8612 18.3654 15.9709C18.3654 16.0806 18.1774 16.5391 17.9473 16.9899C17.6193 17.6332 17.5292 18.119 17.5292 19.2459C17.5292 20.5161 17.5881 20.766 18.0391 21.4075C19.1871 23.0405 21.4139 24.1181 24.4977 24.5326C28.7977 25.1107 30.1267 25.8516 31.4384 28.4021C32.2038 29.8899 32.4843 29.6861 32.1217 27.9057C31.4401 24.5587 29.2977 22.8816 24.0708 21.6035C21.037 20.8619 19.8769 18.0709 22.2453 17.212L22.6214 17.0757C22.8901 16.9784 23.1854 16.8715 23.3914 16.7969C24.199 16.5048 24.596 15.6926 24.3377 14.8601C24.0285 13.8628 23.3805 13.5908 21.31 13.5895C18.6324 13.5881 17.2401 13.0371 17.5463 12.1003C17.8997 11.019 19.7483 10.2639 21.989 10.2856C23.2885 10.2981 23.6574 10.3814 24.92 10.9481C25.7144 11.3046 26.5925 11.7678 26.8712 11.9775C28.9632 13.5518 30.9166 15.971 32.2592 18.6506C34.2578 22.6389 34.3039 25.0692 32.5112 31.903C31.1149 37.2256 31.0963 38.6766 32.4105 39.7913C34.1873 41.2987 36.3911 40.8034 38.5591 38.4095C41.2844 35.4003 43.0811 34.4165 45.8511 34.4165C48.0098 34.4165 48.9146 34.8888 52.4704 37.8723C54.1818 39.3084 55.2046 39.8906 56.6525 40.2531C58.0217 40.5958 58.8312 40.5908 59.9374 40.2328C61.1348 39.8454 61.9735 39.203 62.6454 38.1585C62.9531 37.6802 63.2198 37.289 63.238 37.289C63.2562 37.289 63.7894 37.4924 64.4226 37.7411C69.0664 39.564 72.9167 36.994 71.8077 32.8118C71.3692 31.1579 70.4984 29.7107 69.0235 28.185C65.1297 24.1567 59.5176 22.5132 53.2077 23.5534C51.3413 23.8612 48.2757 24.7165 47.2905 25.2046C46.1649 25.7621 46.6696 25.2376 48.558 23.8872C50.8741 22.2308 52.144 21.5297 57.0171 19.2174C61.5487 17.0671 63.2598 16.1166 64.4321 15.0981C65.8604 13.8576 66.0391 12.9113 65.079 11.6727C64.8354 11.3583 64.636 11.0673 64.636 11.026C64.636 10.9847 65.2005 10.8062 65.8903 10.6292C69.6042 9.67678 71.6892 7.80461 71.6892 5.42184C71.6892 3.32041 69.7415 1.13028 67.2323 0.409815C66.2445 0.126332 62.5334 -0.103291 61.384 0.0480555Z" fill="#60BE00"/>
<path d="M15.8568 27.8838C14.7245 28.0423 12.6643 28.5594 11.5246 28.9712C10.2422 29.4344 8.47819 30.2587 8.33083 30.4633C8.27973 30.5344 8.04317 30.6917 7.80513 30.8129C7.09844 31.1727 6.64762 31.5488 4.98597 33.1651C1.91372 36.1538 0.292947 39.7664 0.0346498 44.201C-0.20042 48.2385 0.758069 52.1737 2.98649 56.3195C4.01671 58.236 4.73678 59.3017 6.92896 62.1544C9.83379 65.9341 10.285 66.9262 10.2755 69.5152C10.2669 71.8285 9.81075 73.0353 8.44028 74.37C7.39947 75.3836 6.89644 75.6768 5.36914 76.1592C4.08193 76.566 3.49937 77.1147 3.49937 77.9206C3.49937 78.6741 4.21442 79.4301 5.05324 79.5631C7.87352 80.0105 13.5046 80.1378 17.0646 79.8348C33.778 78.4118 48.3162 71.0588 53.2071 61.5549C54.8259 58.4096 55.2332 56.7427 55.2323 53.2675C55.2317 50.3766 55.0528 49.3578 54.0551 46.5637C52.952 43.4745 50.8875 40.6373 49.2485 39.9585C47.0169 39.0342 44.4637 40.0177 43.4403 42.1955C42.7701 43.6215 42.9591 44.4114 44.8677 48.1614C45.875 50.1407 46.3177 51.2389 46.5202 52.2615C48.316 61.3299 41.5211 70.1775 30.0501 73.7066C26.3871 74.8335 22.7961 75.3508 18.649 75.3486C15.9987 75.3474 12.8568 75.1147 12.6381 74.9035C12.5825 74.8499 13.3072 74.1118 14.2484 73.2632C17.2967 70.515 18.2799 68.7813 18.2617 66.1865C18.2522 64.8495 18.1748 64.4958 17.6569 63.4265C16.7539 61.5622 16.0171 60.6994 11.5839 56.3136C7.40115 52.1755 6.07212 50.5576 5.18183 48.5192C4.76001 47.5535 4.70798 47.1931 4.71355 45.2782C4.71931 43.2937 4.76038 43.0445 5.23405 42.1165C6.53539 39.5675 9.06187 37.6398 12.6524 36.4569C14.356 35.8955 16.4076 35.6732 19.8845 35.6732C21.4917 35.6732 23.2316 35.5852 23.7506 35.4777C25.4859 35.1181 26.5417 33.7998 26.5417 31.9928C26.5417 30.2251 25.7185 29.2075 23.5685 28.317C22.6522 27.9375 22.2295 27.889 19.4804 27.8497C17.794 27.8254 16.1634 27.8409 15.8568 27.8838Z" fill="#FDAE47"/>
</svg>
