<svg width="70" height="10" viewBox="0 0 70 10" fill="none" xmlns="http://www.w3.org/2000/svg">
<path d="M1.62078 1.70687V0.236084H6.03313V1.70687H1.62078ZM0.149994 7.59001V1.70687H1.62078V7.59001H0.149994ZM6.03313 3.17765V1.70687H7.50392V3.17765H6.03313ZM6.03313 7.59001V6.11922H7.50392V7.59001H6.03313ZM1.62078 9.06079V7.59001H6.03313V9.06079H1.62078Z" fill="black"/>
<path d="M8.97135 1.70687V0.236084H16.3253V1.70687H13.3837V9.06079H11.9129V1.70687H8.97135Z" fill="black"/>
<path d="M17.7927 9.06079V0.236084H25.1466V1.70687H19.2635V3.17765H23.6758V4.64844H19.2635V7.59001H25.1466V9.06079H17.7927Z" fill="black"/>
<path d="M31.0264 3.17765V4.64844H28.0848V9.06079H26.6141V0.236084H28.0848V3.17765H31.0264ZM33.968 0.236084V1.70687H32.4972V0.236084H33.968ZM32.4972 1.70687V3.17765H31.0264V1.70687H32.4972ZM32.4972 6.11922H31.0264V4.64844H32.4972V6.11922ZM32.4972 9.06079V6.11922H33.968V9.06079H32.4972Z" fill="black"/>
<path d="M35.4354 9.06079V7.59001H42.7893V9.06079H35.4354Z" fill="black"/>
<path d="M51.6107 0.236084V9.06079H50.1399V1.70687H45.7276V9.06079H44.2568V0.236084H51.6107Z" fill="black"/>
<path d="M53.0781 9.06079V0.236084H58.9613V1.70687H54.5489V6.11922H58.9613V7.59001H54.5489V9.06079H53.0781ZM58.9613 6.11922V1.70687H60.432V6.11922H58.9613Z" fill="black"/>
<path d="M63.3703 1.70687V0.236084H67.7826V1.70687H63.3703ZM61.8995 7.59001V1.70687H63.3703V7.59001H61.8995ZM67.7826 7.59001V1.70687H69.2534V7.59001H67.7826ZM63.3703 9.06079V7.59001H67.7826V9.06079H63.3703Z" fill="black"/>
<path fill-rule="evenodd" clip-rule="evenodd" d="M1.47078 0.0861816H6.18314V1.55697H7.65392V3.32775H5.88314V1.85697H1.77078V7.4401H5.88314V5.96932H7.65392V7.7401H6.18314V9.21089H1.47078V7.7401H0V1.55697H1.47078V0.0861816ZM1.62078 1.70697H0.15V7.5901H1.62078V9.06089H6.03314V7.5901H7.50392V6.11932H6.03314V7.5901H1.62078V1.70697H6.03314V3.17775H7.50392V1.70697H6.03314V0.236182H1.62078V1.70697ZM8.82135 1.85697V0.0861816H16.4753V1.85697H13.5337V9.21089H11.7629V1.85697H8.82135ZM11.9129 1.70697V9.06089H13.3837V1.70697H16.3253V0.236182H8.97135V1.70697H11.9129ZM17.6427 9.21089V0.0861816H25.2966V1.85697H19.4135V3.02775H23.8258V4.79853H19.4135V7.4401H25.2966V9.21089H17.6427ZM19.2635 7.5901V4.64854H23.6758V3.17775H19.2635V1.70697H25.1466V0.236182H17.7927V9.06089H25.1466V7.5901H19.2635ZM28.2348 9.21089H26.4641V0.0861816H28.2348V3.02775H30.8764V1.55697H32.3472V0.0861816H34.118V1.85697H32.6472V3.32775H31.1764V4.49854H32.6472V5.96932H34.118V9.21089H32.3472V6.26932H30.8764V4.79853H28.2348V9.21089ZM28.0849 4.64854H31.0264V6.11932H32.4972V9.06089H33.968V6.11932H32.4972V4.64854H31.0264V3.17775H32.4972V1.70697H33.968V0.236182H32.4972V1.70697H31.0264V3.17775H28.0849V0.236182H26.6141V9.06089H28.0849V4.64854ZM35.2854 9.21089V7.4401H42.9393V9.21089H35.2854ZM51.7607 0.0861816V9.21089H49.9899V1.85697H45.8776V9.21089H44.1068V0.0861816H51.7607ZM45.7276 1.70697H50.1399V9.06089H51.6107V0.236182H44.2568V9.06089H45.7276V1.70697ZM52.9281 9.21089V0.0861816H59.1113V1.55697H60.5821V6.26932H59.1113V7.7401H54.6989V9.21089H52.9281ZM54.5489 7.5901H58.9613V6.11932H60.4321V1.70697H58.9613V0.236182H53.0781V9.06089H54.5489V7.5901ZM58.9613 1.70697H54.5489V6.11932H58.9613V1.70697ZM58.8113 1.85697H54.6989V5.96932H58.8113V1.85697ZM63.2203 0.0861816H67.9326V1.55697H69.4034V7.7401H67.9326V9.21089H63.2203V7.7401H61.7495V1.55697H63.2203V0.0861816ZM63.3703 1.70697H61.8995V7.5901H63.3703V9.06089H67.7826V7.5901H69.2534V1.70697H67.7826V0.236182H63.3703V1.70697ZM67.7826 1.70697H63.3703V7.5901H67.7826V1.70697ZM67.6326 1.85697H63.5203V7.4401H67.6326V1.85697ZM35.4354 7.5901H42.7893V9.06089H35.4354V7.5901Z" fill="black"/>
</svg>
