<svg width="144" height="36" viewBox="0 0 144 36" fill="none" xmlns="http://www.w3.org/2000/svg">
<path d="M136.986 35.7638C141.142 30.8525 143.545 24.6972 143.816 18.2689C143.604 11.6666 141.201 5.32251 136.986 0.236328L136.251 0.576905C139.639 6.38463 140.141 11.3319 140.141 18.2689C140.141 19.6492 140.141 29.8127 136.323 35.3336L136.986 35.7638Z" fill="#F7941D"/>
<path d="M127.755 33.0751C131.255 28.9313 133.279 23.742 133.509 18.3227C133.338 12.7455 131.313 7.38427 127.755 3.08643L127.128 3.39115C129.978 8.2847 130.408 12.515 130.408 18.3227C130.408 19.4879 130.408 28.056 127.199 32.6628L127.755 33.0751Z" fill="#F7941D"/>
<path d="M119.689 30.2073C122.546 26.8309 124.199 22.5991 124.385 18.1795C124.241 13.6379 122.589 9.27362 119.689 5.77539L119.187 6.02634C121.251 9.72771 122.186 13.9528 121.876 18.1795C121.876 19.1296 121.876 26.1203 119.258 29.9205L119.689 30.2073Z" fill="#F7941D"/>
<path d="M105.349 28.0557H103.018V28.701H111.121V28.0557H108.808V7.97957C112.77 7.97957 114.634 9.16262 115.154 14.092H115.996L115.835 7.37012H98.3937L98.2504 14.092H99.0749C99.5589 9.25225 101.459 7.92579 105.438 7.97957L105.349 28.0557Z" fill="#F7941D"/>
<path d="M89.9149 21.513L83.9817 7.97957H86.5092V7.37012H78.2278V7.97957H80.3071L88.0149 25.7254C87.3517 27.016 86.5988 28.5038 85.2186 28.5038C83.8383 28.5038 83.1393 27.8585 83.1393 27.2669C83.1393 26.6754 83.928 26.4245 84.2506 25.9943C84.6066 25.6286 84.8115 25.1421 84.8242 24.632C84.7964 24.131 84.5716 23.6614 84.1989 23.3256C83.8261 22.9898 83.3357 22.815 82.8345 22.8395C81.5439 22.8395 80.8449 24.0404 80.8449 25.4207C80.9006 26.4652 81.3635 27.4462 82.1342 28.1533C82.905 28.8604 83.9222 29.2372 84.9676 29.2029C86.2403 29.2029 88.2479 28.3604 90.4527 22.1404L94.683 10.2202C94.8449 9.62117 95.1922 9.08873 95.6752 8.69913C96.1582 8.30953 96.752 8.08275 97.3718 8.05127V7.44182H92.2452V7.97957H92.6754C92.8594 7.96588 93.0441 7.99233 93.2168 8.05711C93.3895 8.12189 93.5461 8.22344 93.6757 8.35472C93.8052 8.486 93.9047 8.64388 93.9673 8.81743C94.0298 8.99098 94.0538 9.17604 94.0377 9.3598C93.9767 10.0265 93.8321 10.6829 93.6075 11.3136L89.9149 21.513Z" fill="#F7941D"/>
<path d="M68.441 7.97978H72.4741C75.5214 7.97978 76.4714 11.1525 76.7403 13.5366H77.4752L77.1167 7.33447H62.7767V7.97978H65.089V28.0559H62.7229V28.7012H70.7354V28.0559H68.4051L68.441 7.97978Z" fill="#F7941D"/>
<path d="M47.164 19.3808C47.164 15.9571 49.3509 14.9712 50.4622 14.9712C51.5736 14.9712 53.7963 15.9571 53.7963 19.3808V24.113C53.7963 24.83 53.5991 28.4509 50.4622 28.4509C47.9706 28.4509 47.164 25.798 47.164 24.113V19.3808ZM56.1265 5.04073C55.9473 6.83324 54.0472 6.83324 52.0038 7.35307C47.5225 8.57197 43.5969 10.2928 43.5969 19.094C43.5969 27.8952 48.5442 29.0245 50.4622 29.0245C52.3187 28.9108 54.0625 28.0958 55.3406 26.7445C56.6186 25.3933 57.3353 23.6068 57.3454 21.7469C57.3889 19.8542 56.682 18.0212 55.3791 16.6477C54.0761 15.2743 52.2828 14.4718 50.3905 14.4155C49.0899 14.4774 47.8361 14.9198 46.7845 15.6877C45.733 16.4557 44.93 17.5154 44.4753 18.7355H44.1885C44.063 12.5513 47.9348 11.7268 51.8783 10.5617C54.1368 9.86258 56.6105 9.05595 56.6105 5.00488L56.1265 5.04073Z" fill="black"/>
<path d="M25.5109 7.90877H34.9574V28.0565H32.7167V28.7018H40.9981V28.0565H38.5245V7.90877H40.9981V7.29932H19.4701V7.90877H21.9258V28.0565H19.4701V28.7018H27.7515V28.0565H25.5109V7.90877Z" fill="black"/>
<path d="M15.132 6.93994C14.8272 7.94375 14.2178 7.94375 13.8593 7.94375C12.2998 7.94375 12.479 6.93994 9.61104 6.93994C8.30883 6.9902 7.0297 7.29955 5.84843 7.84991C4.66716 8.40026 3.60747 9.18057 2.73127 10.1452C1.85507 11.1099 1.17997 12.2395 0.745412 13.4681C0.310857 14.6967 0.125554 15.9996 0.200379 17.3006C0.200379 23.8254 3.49859 29.0595 8.96573 29.0595C10.2585 29.0275 11.5272 28.7027 12.6762 28.1095C13.1777 27.7365 13.7619 27.4905 14.3791 27.3925C15.2395 27.3925 15.365 28.4142 15.4009 28.701H16.2254L16.4763 21.531H15.7056C14.7555 26.7472 12.1206 28.3963 9.73653 28.3963C7.35249 28.3963 4.23352 26.8906 4.23352 21.1366V15.7591C4.23352 8.7683 7.69307 7.42392 9.7903 7.42392C13.5366 7.42392 14.8452 9.9155 15.2575 13.7694H15.9028V6.93994H15.132Z" fill="black"/>
</svg>
