<svg width="29" height="29" viewBox="0 0 29 29" fill="none" xmlns="http://www.w3.org/2000/svg">
<g clip-path="url(#clip0_26_213)">
<path fill-rule="evenodd" clip-rule="evenodd" d="M2.03854 2.63189C0 4.57336 0 7.6981 0 13.9476V15.0523C0 21.3018 0 24.4265 2.03854 26.368C4.07708 28.3095 7.35805 28.3095 13.92 28.3095H15.08C21.6419 28.3095 24.9229 28.3095 26.9615 26.368C29 24.4265 29 21.3018 29 15.0523V13.9476C29 7.6981 29 4.57336 26.9615 2.63189C24.9229 0.69043 21.6419 0.69043 15.08 0.69043H13.92C7.35805 0.69043 4.07708 0.69043 2.03854 2.63189ZM4.89381 9.09129C5.05087 16.2722 8.82084 20.5877 15.4304 20.5877H15.8051V16.4794C18.2338 16.7095 20.0704 18.4012 20.8074 20.5877H24.2392C23.2967 17.3194 20.8195 15.5127 19.2728 14.8222C20.8195 13.9706 22.9945 11.8992 23.5141 9.09129H20.3965C19.7199 11.3699 17.7142 13.4413 15.8051 13.6369V9.09129H12.6875V17.0547C10.7542 16.5944 8.31337 14.3619 8.20462 9.09129H4.89381Z" fill="black"/>
</g>
<defs>
<clipPath id="clip0_26_213">
<rect width="29" height="27.619" fill="white" transform="translate(0 0.69043)"/>
</clipPath>
</defs>
</svg>
