<svg width="41" height="9" viewBox="0 0 41 9" fill="none" xmlns="http://www.w3.org/2000/svg">
<path d="M3.14485 2.95322V2.14874H5.55828V2.95322H3.14485ZM2.34037 6.17113V2.95322H3.14485V6.17113H2.34037ZM5.55828 3.7577V2.95322H6.36276V3.7577H5.55828ZM5.55828 6.17113V5.36665H6.36276V6.17113H5.55828ZM3.14485 6.97561V6.17113H5.55828V6.97561H3.14485Z" fill="#696969"/>
<path fill-rule="evenodd" clip-rule="evenodd" d="M4.35158 7.90849C6.19969 7.90849 7.69789 6.4103 7.69789 4.56218C7.69789 2.71406 6.19969 1.21587 4.35158 1.21587C2.50346 1.21587 1.00527 2.71406 1.00527 4.56218C1.00527 6.4103 2.50346 7.90849 4.35158 7.90849ZM4.35158 8.76376C6.67205 8.76376 8.55316 6.88265 8.55316 4.56218C8.55316 2.24171 6.67205 0.360596 4.35158 0.360596C2.03111 0.360596 0.149994 2.24171 0.149994 4.56218C0.149994 6.88265 2.03111 8.76376 4.35158 8.76376Z" fill="#696969"/>
<path d="M11.1932 1.96218V0.642179H15.1532V1.96218H11.1932ZM9.87316 3.28218V1.96218H11.1932V3.28218H9.87316ZM15.1532 4.60218V1.96218H16.4732V4.60218H15.1532ZM11.1932 4.60218H15.1532V5.92218H11.1932V4.60218ZM9.87316 8.56218V5.92218H11.1932V7.24218H16.4732V8.56218H9.87316Z" fill="#696969"/>
<path d="M19.1102 1.96218V0.642179H23.0702V1.96218H19.1102ZM17.7902 7.24218V1.96218H19.1102V7.24218H17.7902ZM23.0702 7.24218V1.96218H24.3902V7.24218H23.0702ZM19.1102 8.56218V7.24218H23.0702V8.56218H19.1102Z" fill="#696969"/>
<path d="M27.0271 1.96218V0.642179H30.9871V1.96218H27.0271ZM25.7071 3.28218V1.96218H27.0271V3.28218H25.7071ZM30.9871 4.60218V1.96218H32.3071V4.60218H30.9871ZM27.0271 4.60218H30.9871V5.92218H27.0271V4.60218ZM25.7071 8.56218V5.92218H27.0271V7.24218H32.3071V8.56218H25.7071Z" fill="#696969"/>
<path d="M33.6241 7.24218V4.60218H34.9441V5.92218H37.5841V3.28218H36.2641V1.96218H37.5841V0.642179H38.9041V5.92218H40.2241V7.24218H38.9041V8.56218H37.5841V7.24218H33.6241ZM34.9441 4.60218V3.28218H36.2641V4.60218H34.9441Z" fill="#696969"/>
<path fill-rule="evenodd" clip-rule="evenodd" d="M2.99486 1.99884H5.70829V2.80332H6.51277V3.9078H5.40829V3.10332H3.29486V6.02123H5.40829V5.21675H6.51277V6.32123H5.70829V7.12571H2.99486V6.32123H2.19038V2.80332H2.99486V1.99884ZM3.14486 2.95332H2.34038V6.17123H3.14486V6.97571H5.55829V6.17123H6.36277V5.36675H5.55829V6.17123H3.14486V2.95332H5.55829V3.7578H6.36277V2.95332H5.55829V2.14884H3.14486V2.95332ZM11.0432 0.492277H15.3032V1.81228H16.6232V4.75228H15.3032V6.07228H11.3432V7.09228H16.6232V8.71228H9.72317V5.77228H11.0432V4.45228H15.0032V2.11228H11.3432V3.43228H9.72317V1.81228H11.0432V0.492277ZM11.1932 1.96228H9.87317V3.28228H11.1932V1.96228H15.1532V4.60228H11.1932V5.92228H9.87317V8.56228H16.4732V7.24228H11.1932V5.92228H15.1532V4.60228H16.4732V1.96228H15.1532V0.642277H11.1932V1.96228ZM18.9602 0.492277H23.2202V1.81228H24.5402V7.39228H23.2202V8.71228H18.9602V7.39228H17.6402V1.81228H18.9602V0.492277ZM19.1102 1.96228H17.7902V7.24228H19.1102V8.56228H23.0702V7.24228H24.3902V1.96228H23.0702V0.642277H19.1102V1.96228ZM23.0702 1.96228H19.1102V7.24228H23.0702V1.96228ZM22.9202 2.11228H19.2602V7.09228H22.9202V2.11228ZM26.8772 0.492277H31.1372V1.81228H32.4572V4.75228H31.1372V6.07228H27.1772V7.09228H32.4572V8.71228H25.5572V5.77228H26.8772V4.45228H30.8372V2.11228H27.1772V3.43228H25.5572V1.81228H26.8772V0.492277ZM27.0272 1.96228H25.7072V3.28228H27.0272V1.96228H30.9872V4.60228H27.0272V5.92228H25.7072V8.56228H32.3072V7.24228H27.0272V5.92228H30.9872V4.60228H32.3072V1.96228H30.9872V0.642277H27.0272V1.96228ZM33.4741 7.39228V4.45228H34.7941V3.13228H36.1141V1.81228H37.4341V0.492277H39.0541V5.77228H40.3741V7.39228H39.0541V8.71228H37.4341V7.39228H33.4741ZM37.5841 7.24228V8.56228H38.9041V7.24228H40.2241V5.92228H38.9041V0.642277H37.5841V1.96228H36.2641V3.28228H34.9441V4.60228H33.6241V7.24228H37.5841ZM34.9441 4.60228V5.92228H37.5841V3.28228H36.2641V4.60228H34.9441ZM35.0941 4.75228V5.77228H37.4341V3.43228H36.4141V4.75228H35.0941ZM4.35158 7.75859C6.11686 7.75859 7.54789 6.32755 7.54789 4.56228C7.54789 2.797 6.11686 1.36597 4.35158 1.36597C2.58631 1.36597 1.15527 2.797 1.15527 4.56228C1.15527 6.32755 2.58631 7.75859 4.35158 7.75859ZM8.70317 4.56228C8.70317 6.96559 6.7549 8.91386 4.35158 8.91386C1.94827 8.91386 0 6.96559 0 4.56228C0 2.15896 1.94827 0.210693 4.35158 0.210693C6.7549 0.210693 8.70317 2.15896 8.70317 4.56228ZM7.69789 4.56228C7.69789 6.41039 6.1997 7.90859 4.35158 7.90859C2.50347 7.90859 1.00528 6.41039 1.00528 4.56228C1.00528 2.71416 2.50347 1.21597 4.35158 1.21597C6.1997 1.21597 7.69789 2.71416 7.69789 4.56228ZM8.55317 4.56228C8.55317 6.88275 6.67205 8.76386 4.35158 8.76386C2.03111 8.76386 0.15 6.88275 0.15 4.56228C0.15 2.24181 2.03111 0.360693 4.35158 0.360693C6.67205 0.360693 8.55317 2.24181 8.55317 4.56228Z" fill="#696969"/>
</svg>
