<svg width="61" height="60" viewBox="0 0 61 60" fill="none" xmlns="http://www.w3.org/2000/svg">
<rect x="0.5" width="60" height="60" rx="12" fill="#FFFBFF"/>
<g clip-path="url(#clip0_686_678)">
<path d="M31.2949 50C31.0516 50 30.825 49.9967 30.825 49.9967L30.8316 49.6667C30.8316 49.6667 31.3282 49.6767 31.6449 49.6667C32.9214 49.6333 33.8247 49.4567 34.9579 49.2033C43.9139 47.2067 50.17 39.3267 50.17 30.0367V18.43H50.5V30.04C50.5 39.4833 44.1372 47.4967 35.0313 49.5267C33.8814 49.7767 32.9648 49.96 31.6549 49.9967C31.5449 49.9967 31.4216 50 31.2949 50Z" fill="black"/>
<path d="M10.83 41.57H10.5V29.96C10.5 20.52 16.9695 12.5033 26.232 10.4733C27.4019 10.2233 28.3318 10.04 29.6617 10.0033C29.9884 9.99335 30.5017 10.0033 30.5017 10.0033L30.495 10.3333C30.495 10.3333 29.9917 10.3233 29.6684 10.3333C28.3685 10.3667 27.4553 10.5467 26.2987 10.7967C17.1928 12.7933 10.83 20.6767 10.83 29.96V41.57Z" fill="black"/>
<path d="M30.835 50.0001H30.505V49.6701H30.835V50.0001ZM30.1217 46.1101L30.0884 45.9467C28.1985 36.9034 20.0992 30.3367 10.8333 30.3367H10.5V30.0067H10.8333C14.2697 30.0067 17.5061 29.1634 20.4492 27.5034L20.5958 27.42L20.7591 27.7067L20.6125 27.79C18.3727 29.0567 15.9629 29.8534 13.4231 30.1734C21.7291 31.2634 28.6685 37.5367 30.4117 45.88L30.445 46.0434L30.1217 46.1101ZM50.1667 30.3367C40.7575 30.1767 32.6782 23.4267 30.875 14.2067C30.725 14.1967 30.6117 14.1934 30.4583 14.1934C29.6084 18.5267 27.4119 22.3667 24.0955 25.2967L23.9722 25.4067L23.7556 25.16L23.8789 25.05C27.1753 22.1367 29.3451 18.3134 30.1617 13.9967L30.1884 13.86H30.325C30.595 13.86 30.755 13.86 31.0283 13.8834L31.1549 13.8934L31.1783 14.02C32.9148 23.2034 40.9741 29.9234 50.3367 30.0034H50.5033V30.3334H50.17L50.1667 30.3367Z" fill="black"/>
<path d="M18.876 49.9967C14.2564 49.9967 10.5 46.2367 10.5 41.6167C10.5 36.9967 14.2564 33.24 18.876 33.24C23.4956 33.24 27.2519 37 27.2519 41.6167C27.2519 42.8233 27.002 43.9867 26.5087 45.0833C27.6286 45.4833 28.8451 45.72 30.1284 45.78C30.3517 45.79 30.575 45.7933 30.8083 45.7933C39.5676 45.7933 40.2509 39.9067 40.2509 38.1C40.2509 33.37 35.7546 32.48 30.5483 31.4533C26.762 30.7067 22.8723 29.9367 20.2825 27.5833C18.346 25.82 17.4028 23.4067 17.4028 20.2033C17.4028 15.51 20.7058 11.7967 26.0287 10.51L26.1487 10.48L26.472 10.4133C26.9453 10.3133 27.4419 10.23 27.9585 10.16C28.1252 10.14 28.2918 10.1233 28.4585 10.1067C28.7285 10.08 29.0818 10.05 29.4351 10.0367C29.4518 10.0367 29.4817 10.0333 29.5084 10.0333C29.6117 10.0233 29.7384 10.02 29.8584 10.0167C32.7115 9.91667 35.1879 10.4467 37.2478 11.5667C38.671 10.5433 40.3575 10 42.1207 10C46.7403 10 50.4967 13.76 50.4967 18.3767C50.4967 22.9933 46.7403 26.7533 42.1207 26.7533C37.5011 26.7533 33.7447 22.9933 33.7447 18.3767C33.7447 17.21 33.978 16.0833 34.438 15.0367C33.3914 14.56 32.1882 14.2833 30.865 14.2133C30.6583 14.2033 30.565 14.2 30.355 14.2H29.985C24.7321 14.2467 21.5991 16.5433 21.5991 20.3433C21.5991 22.3433 22.3357 23.8433 23.8556 24.9267C25.7287 26.2667 28.5452 26.8533 31.5249 27.47C37.5711 28.7167 44.3972 30.1333 44.3972 38.5633C44.3972 44.4733 41.7241 46.66 39.3976 47.9033C38.7443 48.23 38.0677 48.5233 37.3778 48.7767L37.3411 48.79C35.4413 49.4433 33.1714 50.0433 30.4383 49.99C27.7086 49.9367 25.6221 49.5 23.5989 48.5333C22.209 49.4867 20.5758 49.99 18.8793 49.99L18.876 49.9967ZM23.5656 48.1467L23.6522 48.19C25.6487 49.1633 27.7219 49.6 30.425 49.6567C33.1314 49.7133 35.3979 49.1033 37.2511 48.4667C37.9377 48.2133 38.601 47.9267 39.2409 47.6067C43.5106 45.3233 44.0572 41.58 44.0572 38.57C44.0572 30.4133 37.6611 29.09 31.4749 27.8133C28.4352 27.1833 25.5854 26.5933 23.6556 25.21C22.0424 24.0567 21.2591 22.4667 21.2591 20.3467C21.2591 16.3367 24.5155 13.9133 29.975 13.8667H30.3517C30.5717 13.8667 30.6683 13.8667 30.875 13.8767C32.3115 13.95 33.6047 14.26 34.728 14.8033L34.878 14.8733L34.808 15.0267C34.3247 16.0767 34.078 17.2033 34.078 18.38C34.078 22.8133 37.6844 26.4167 42.1174 26.4167C46.5503 26.4167 50.1567 22.81 50.1567 18.38C50.1567 13.95 46.5537 10.3433 42.1207 10.3433C40.3942 10.3433 38.7476 10.8833 37.3544 11.9L37.2678 11.9633L37.1744 11.9133C35.3013 10.8733 33.0581 10.3433 30.495 10.3433C30.285 10.3433 30.0284 10.3533 29.8751 10.3533C29.7217 10.3533 29.6217 10.3633 29.4618 10.37C29.0818 10.39 28.7485 10.4167 28.4885 10.44C28.3252 10.4567 28.1585 10.4733 27.9952 10.4933C27.4919 10.5567 27.002 10.6433 26.5353 10.7367L26.1254 10.8267C20.9491 12.0733 17.7361 15.6633 17.7361 20.1967C17.7361 23.3 18.6393 25.6333 20.5025 27.3267C23.019 29.6167 26.8653 30.3767 30.5817 31.1133C35.7346 32.13 40.5775 33.0867 40.5775 38.1C40.5775 39.9833 39.8709 46.1333 30.8016 46.1333C30.565 46.1333 30.3383 46.13 30.1084 46.12C28.7251 46.0533 27.4119 45.79 26.2154 45.3367L26.0454 45.2733L26.1254 45.1067C26.6487 44.01 26.9153 42.8367 26.9153 41.62C26.9153 37.1867 23.3089 33.5833 18.876 33.5833C14.443 33.5833 10.8366 37.1867 10.8366 41.6167C10.8366 46.0467 14.443 49.6567 18.876 49.6567C20.5392 49.6567 22.1324 49.1533 23.4856 48.2033L23.5656 48.1467Z" fill="black"/>
<path d="M23.5656 48.1467L23.6523 48.19C25.6488 49.1633 27.7219 49.6 30.425 49.6567C33.1315 49.7133 35.398 49.1033 37.2511 48.4667C37.9377 48.2133 38.601 47.9267 39.241 47.6067C43.5106 45.3233 44.0572 41.58 44.0572 38.57C44.0572 30.4133 37.6611 29.09 31.475 27.8133C28.4352 27.1833 25.5854 26.5933 23.6556 25.21C22.0424 24.0567 21.2591 22.4667 21.2591 20.3467C21.2591 16.3367 24.5155 13.9133 29.9751 13.8667H30.3517C30.5717 13.8667 30.6684 13.8667 30.875 13.8767C32.3115 13.95 33.6048 14.26 34.728 14.8033L34.878 14.8733L34.808 15.0267C34.3247 16.0767 34.0781 17.2033 34.0781 18.38C34.0781 22.8133 37.6844 26.4167 42.1174 26.4167C46.5504 26.4167 50.1567 22.81 50.1567 18.38C50.1567 13.95 46.5537 10.3433 42.1207 10.3433C40.3942 10.3433 38.7477 10.8833 37.3545 11.9L37.2678 11.9633L37.1745 11.9133C35.3013 10.8733 33.0582 10.3433 30.495 10.3433C30.2851 10.3433 30.0284 10.3533 29.8751 10.3533C29.7218 10.3533 29.6218 10.3633 29.4618 10.37C29.0818 10.39 28.7485 10.4167 28.4885 10.44C28.3252 10.4567 28.1586 10.4733 27.9952 10.4933C27.492 10.5567 27.002 10.6433 26.5354 10.7367L26.1254 10.8267C20.9492 12.0733 17.7361 15.6633 17.7361 20.1967C17.7361 23.3 18.6394 25.6333 20.5025 27.3267C23.019 29.6167 26.8653 30.3767 30.5817 31.1133C35.7346 32.13 40.5775 33.0867 40.5775 38.1C40.5775 39.9833 39.8709 46.1333 30.8017 46.1333C30.565 46.1333 30.3384 46.13 30.1084 46.12C28.7252 46.0533 27.412 45.79 26.2154 45.3367L26.0454 45.2733L26.1254 45.1067C26.6487 44.01 26.9153 42.8367 26.9153 41.62C26.9153 37.1867 23.309 33.5833 18.876 33.5833C14.443 33.5833 10.8367 37.1867 10.8367 41.6167C10.8367 46.0467 14.443 49.6567 18.876 49.6567C20.5392 49.6567 22.1324 49.1533 23.4856 48.2033L23.5656 48.1467Z" fill="#1CBDAF"/>
</g>
<defs>
<clipPath id="clip0_686_678">
<rect width="40" height="40" fill="white" transform="translate(10.5 10)"/>
</clipPath>
</defs>
</svg>
