<svg width="124" height="124" viewBox="0 0 124 124" fill="none" xmlns="http://www.w3.org/2000/svg">
<g clip-path="url(#clip0_26_204)">
<path d="M64.4642 124C63.7099 124 63.0073 123.989 63.0073 123.989L63.028 122.966C63.028 122.966 64.5675 122.997 65.5491 122.966C69.5064 122.863 72.3065 122.315 75.8196 121.53C103.583 115.34 122.977 90.9125 122.977 62.1135V26.1328H124V62.1238C124 91.3981 104.275 116.239 76.0469 122.532C72.4822 123.307 69.6408 123.876 65.5801 123.989C65.2391 123.989 64.8568 124 64.4642 124Z" fill="black"/>
<path d="M1.02291 97.8668H0V61.8758C0 32.6118 20.0553 7.76012 48.7693 1.46712C52.396 0.692116 55.2787 0.123782 59.4014 0.0101157C60.414 -0.0208843 62.0052 0.0101157 62.0052 0.0101157L61.9845 1.03312C61.9845 1.03312 60.4243 1.00212 59.422 1.03312C55.3924 1.13645 52.5613 1.69445 48.9759 2.46945C20.7476 8.65911 1.02291 33.0975 1.02291 61.8758V97.8668Z" fill="black"/>
<path d="M63.0384 124H62.0155V122.977H63.0384V124ZM60.8273 111.941L60.7239 111.435C54.8654 83.4004 29.7575 63.0437 1.03325 63.0437H0V62.0207H1.03325C11.686 62.0207 21.7189 59.4064 30.8424 54.2604L31.2971 54.0021L31.8034 54.8907L31.3487 55.1491C24.4053 59.0757 16.9349 61.5454 9.06158 62.5374C34.8101 65.9164 56.3223 85.3637 61.7262 111.228L61.8295 111.734L60.8273 111.941ZM122.967 63.0437C93.7982 62.5477 68.7523 41.6227 63.1624 13.0407C62.6974 13.0097 62.3461 12.9994 61.8708 12.9994C59.2361 26.4327 52.427 38.3367 42.1462 47.4197L41.7639 47.7607L41.0922 46.9961L41.4745 46.6551C51.6934 37.6237 58.4198 25.7714 60.9513 12.3897L61.0339 11.9661H61.4575C62.2945 11.9661 62.7904 11.9661 63.6377 12.0384L64.0303 12.0694L64.1027 12.4621C69.4859 40.9304 94.4698 61.7624 123.494 62.0104H124.01V63.0334H122.977L122.967 63.0437Z" fill="black"/>
<path d="M25.9655 123.99C11.6447 123.99 0 112.334 0 98.0117C0 83.6897 11.6447 72.044 25.9655 72.044C40.2863 72.044 51.931 83.7 51.931 98.0117C51.931 101.752 51.1561 105.359 49.6269 108.758C53.0986 109.998 56.8699 110.732 60.8479 110.918C61.5402 110.949 62.2325 110.959 62.9557 110.959C90.1095 110.959 92.2276 92.7107 92.2276 87.11C92.2276 72.447 78.2891 69.688 62.1498 66.5053C50.4121 64.1907 38.3541 61.8037 30.3258 54.5083C24.3226 49.042 21.3985 41.5607 21.3985 31.6303C21.3985 17.081 31.638 5.56967 48.139 1.581L48.511 1.488L49.5132 1.28133C50.9804 0.971333 52.52 0.713 54.1215 0.496C54.6381 0.434 55.1547 0.382333 55.6714 0.330667C56.5083 0.248 57.6035 0.155 58.6988 0.113667C58.7504 0.113667 58.8434 0.103333 58.9261 0.103333C59.2464 0.0723333 59.639 0.062 60.011 0.0516667C68.8556 -0.258333 76.5326 1.38467 82.9181 4.85667C87.33 1.68433 92.5583 0 98.0242 0C112.345 0 123.99 11.656 123.99 25.9677C123.99 40.2793 112.345 51.9353 98.0242 51.9353C83.7034 51.9353 72.0587 40.2793 72.0587 25.9677C72.0587 22.351 72.7819 18.8583 74.2078 15.6137C70.9634 14.136 67.2334 13.2783 63.1314 13.0613C62.4908 13.0303 62.2015 13.02 61.5505 13.02H60.4036C44.1197 13.1647 34.4071 20.2843 34.4071 32.0643C34.4071 38.2643 36.6906 42.9143 41.4022 46.2727C47.2091 50.4267 55.94 52.2453 65.1772 54.157C83.9203 58.0217 105.081 62.4133 105.081 88.5463C105.081 106.867 96.7946 113.646 89.5825 117.5C87.5574 118.513 85.4599 119.422 83.321 120.208L83.2074 120.249C77.3179 122.274 70.2815 124.134 61.8088 123.969C53.3465 123.804 46.8784 122.45 40.6066 119.453C36.298 122.409 31.2351 123.969 25.9758 123.969L25.9655 123.99ZM40.5033 118.255L40.7719 118.389C46.9611 121.406 53.3879 122.76 61.7675 122.936C70.1575 123.111 77.1836 121.22 82.9284 119.247C85.0569 118.461 87.1131 117.573 89.0969 116.581C102.333 109.502 104.027 97.898 104.027 88.567C104.027 63.2813 84.1993 59.179 65.0222 55.2213C55.599 53.2683 46.7648 51.4393 40.7823 47.151C35.7813 43.5757 33.3532 38.6467 33.3532 32.0747C33.3532 19.6437 43.448 12.1313 60.3726 11.9867H61.5402C62.2221 11.9867 62.5218 11.9867 63.1624 12.0177C67.6157 12.245 71.6247 13.206 75.1067 14.8903L75.5717 15.1073L75.3547 15.5827C73.8565 18.8377 73.0919 22.3303 73.0919 25.978C73.0919 39.7213 84.2716 50.8917 98.0138 50.8917C111.756 50.8917 122.936 39.711 122.936 25.978C122.936 12.245 111.766 1.06433 98.0242 1.06433C92.6719 1.06433 87.5677 2.73833 83.2487 5.89L82.9801 6.08633L82.6908 5.93133C76.8839 2.70733 69.9302 1.06433 61.9845 1.06433C61.3335 1.06433 60.5379 1.09533 60.0627 1.09533C59.5874 1.09533 59.2774 1.12633 58.7814 1.147C57.6035 1.209 56.5703 1.29167 55.7643 1.364C55.2581 1.41567 54.7414 1.46733 54.2351 1.52933C52.6749 1.72567 51.1561 1.99433 49.7095 2.28367L48.4386 2.56267C32.3923 6.42733 22.4318 17.5563 22.4318 31.6097C22.4318 41.23 25.2319 48.4633 31.0077 53.7127C38.8088 60.8117 50.7324 63.1677 62.2531 65.4513C78.2271 68.603 93.2402 71.5687 93.2402 87.11C93.2402 92.9483 91.0497 112.013 62.9351 112.013C62.2015 112.013 61.4989 112.003 60.7859 111.972C56.498 111.765 52.427 110.949 48.7176 109.544L48.1906 109.347L48.4386 108.831C50.0608 105.431 50.8874 101.794 50.8874 98.022C50.8874 84.2787 39.7077 73.1083 25.9655 73.1083C12.2233 73.1083 1.04358 84.2787 1.04358 98.0117C1.04358 111.745 12.2233 122.936 25.9655 122.936C31.1214 122.936 36.0603 121.375 40.2553 118.43L40.5033 118.255Z" fill="black"/>
<path d="M40.5034 118.255L40.7721 118.389C46.9612 121.406 53.388 122.76 61.7676 122.936C70.1576 123.111 77.1837 121.22 82.9285 119.247C85.057 118.461 87.1132 117.573 89.097 116.581C102.333 109.502 104.027 97.8981 104.027 88.5671C104.027 63.2815 84.1994 59.1791 65.0224 55.2215C55.5992 53.2685 46.7649 51.4395 40.7824 47.1511C35.7815 43.5758 33.3533 38.6468 33.3533 32.0748C33.3533 19.6438 43.4482 12.1315 60.3728 11.9868H61.5403C62.2223 11.9868 62.5219 11.9868 63.1625 12.0178C67.6158 12.2451 71.6248 13.2061 75.1069 14.8905L75.5718 15.1075L75.3548 15.5828C73.8566 18.8378 73.092 22.3305 73.092 25.9781C73.092 39.7215 84.2718 50.8918 98.0139 50.8918C111.756 50.8918 122.936 39.7111 122.936 25.9781C122.936 12.2451 111.766 1.06445 98.0243 1.06445C92.6721 1.06445 87.5678 2.73845 83.2488 5.89012L82.9802 6.08645L82.6909 5.93145C76.884 2.70745 69.9303 1.06445 61.9846 1.06445C61.3337 1.06445 60.5381 1.09545 60.0628 1.09545C59.5875 1.09545 59.2775 1.12645 58.7816 1.14712C57.6036 1.20912 56.5704 1.29179 55.7645 1.36412C55.2582 1.41579 54.7416 1.46745 54.2353 1.52945C52.6751 1.72579 51.1562 1.99445 49.7096 2.28379L48.4387 2.56279C32.3924 6.42745 22.4319 17.5565 22.4319 31.6098C22.4319 41.2301 25.232 48.4635 31.0079 53.7128C38.8089 60.8118 50.7326 63.1678 62.2533 65.4515C78.2273 68.6031 93.2403 71.5688 93.2403 87.1101C93.2403 92.9485 91.0499 112.013 62.9352 112.013C62.2016 112.013 61.499 112.003 60.7861 111.972C56.4981 111.765 52.4271 110.949 48.7177 109.544L48.1908 109.347L48.4387 108.831C50.0609 105.431 50.8875 101.794 50.8875 98.0221C50.8875 84.2788 39.7078 73.1085 25.9656 73.1085C12.2234 73.1085 1.0437 84.2788 1.0437 98.0118C1.0437 111.745 12.2234 122.936 25.9656 122.936C31.1215 122.936 36.0604 121.375 40.2554 118.43L40.5034 118.255Z" fill="#1CBDAF"/>
</g>
<defs>
<clipPath id="clip0_26_204">
<rect width="124" height="124" fill="white"/>
</clipPath>
</defs>
</svg>
