<svg width="41" height="9" viewBox="0 0 41 9" fill="none" xmlns="http://www.w3.org/2000/svg">
<path d="M3.14486 2.86728V2.0628H5.55829V2.86728H3.14486ZM2.34038 6.08519V2.86728H3.14486V6.08519H2.34038ZM5.55829 3.67176V2.86728H6.36277V3.67176H5.55829ZM5.55829 6.08519V5.28072H6.36277V6.08519H5.55829ZM3.14486 6.88967V6.08519H5.55829V6.88967H3.14486Z" fill="#696969"/>
<path fill-rule="evenodd" clip-rule="evenodd" d="M4.35159 7.82255C6.1997 7.82255 7.69789 6.32436 7.69789 4.47624C7.69789 2.62813 6.1997 1.12993 4.35159 1.12993C2.50347 1.12993 1.00528 2.62813 1.00528 4.47624C1.00528 6.32436 2.50347 7.82255 4.35159 7.82255ZM4.35159 8.67783C6.67206 8.67783 8.55317 6.79671 8.55317 4.47624C8.55317 2.15577 6.67206 0.274658 4.35159 0.274658C2.03111 0.274658 0.150002 2.15577 0.150002 4.47624C0.150002 6.79671 2.03111 8.67783 4.35159 8.67783Z" fill="#696969"/>
<path d="M33.6272 4.50419V0.544189H40.2272V1.86419H34.9472V3.18419H38.9072V4.50419H33.6272ZM38.9072 7.14419V4.50419H40.2272V7.14419H38.9072ZM33.6272 7.14419V5.82419H34.9472V7.14419H33.6272ZM34.9472 8.46419V7.14419H38.9072V8.46419H34.9472Z" fill="#696969"/>
<path d="M27.0302 1.86419V0.544189H30.9902V1.86419H27.0302ZM25.7102 3.18419V1.86419H27.0302V3.18419H25.7102ZM30.9902 4.50419V1.86419H32.3102V4.50419H30.9902ZM27.0302 4.50419H30.9902V5.82419H27.0302V4.50419ZM25.7102 8.46419V5.82419H27.0302V7.14419H32.3102V8.46419H25.7102Z" fill="#696969"/>
<path d="M19.1132 1.86419V0.544189H23.0732V1.86419H19.1132ZM17.7932 7.14419V1.86419H19.1132V7.14419H17.7932ZM23.0732 7.14419V1.86419H24.3932V7.14419H23.0732ZM19.1132 8.46419V7.14419H23.0732V8.46419H19.1132Z" fill="#696969"/>
<path d="M11.1962 1.86419V0.544189H15.1562V1.86419H11.1962ZM9.8762 3.18419V1.86419H11.1962V3.18419H9.8762ZM15.1562 4.50419V1.86419H16.4762V4.50419H15.1562ZM11.1962 4.50419H15.1562V5.82419H11.1962V4.50419ZM9.8762 8.46419V5.82419H11.1962V7.14419H16.4762V8.46419H9.8762Z" fill="#696969"/>
<path fill-rule="evenodd" clip-rule="evenodd" d="M33.4771 4.65404V0.394043H40.3772V2.01404H35.0972V3.03404H39.0572V4.35404H40.3772V7.29404H39.0572V8.61404H34.7971V7.29404H33.4771V5.67404H35.0972V6.99404H38.7571V4.65404H33.4771ZM38.9072 4.50419V7.14419H34.9472V5.82419H33.6272V7.14419H34.9472V8.46419H38.9072V7.14419H40.2272V4.50419H38.9072V3.18419H34.9472V1.86419H40.2272V0.544189H33.6272V4.50419H38.9072Z" fill="#696969"/>
<path fill-rule="evenodd" clip-rule="evenodd" d="M26.8802 0.394043H31.1402V1.71404H32.4602V4.65404H31.1402V5.97404H27.1802V6.99404H32.4602V8.61404H25.5602V5.67404H26.8802V4.35404H30.8402V2.01404H27.1802V3.33404H25.5602V1.71404H26.8802V0.394043ZM27.0302 1.86419H25.7102V3.18419H27.0302V1.86419H30.9902V4.50419H27.0302V5.82419H25.7102V8.46419H32.3102V7.14419H27.0302V5.82419H30.9902V4.50419H32.3102V1.86419H30.9902V0.544189H27.0302V1.86419Z" fill="#696969"/>
<path fill-rule="evenodd" clip-rule="evenodd" d="M18.9632 0.394043H23.2232V1.71404H24.5432V7.29404H23.2232V8.61404H18.9632V7.29404H17.6432V1.71404H18.9632V0.394043ZM19.1132 1.86419H17.7932V7.14419H19.1132V8.46419H23.0732V7.14419H24.3932V1.86419H23.0732V0.544189H19.1132V1.86419ZM23.0732 1.86419H19.1132V7.14419H23.0732V1.86419ZM22.9232 2.01404H19.2632V6.99404H22.9232V2.01404Z" fill="#696969"/>
<path fill-rule="evenodd" clip-rule="evenodd" d="M11.0462 0.394043H15.3062V1.71404H16.6262V4.65404H15.3062V5.97404H11.3462V6.99404H16.6262V8.61404H9.72617V5.67404H11.0462V4.35404H15.0062V2.01404H11.3462V3.33404H9.72617V1.71404H11.0462V0.394043ZM11.1962 1.86419H9.8762V3.18419H11.1962V1.86419H15.1562V4.50419H11.1962V5.82419H9.8762V8.46419H16.4762V7.14419H11.1962V5.82419H15.1562V4.50419H16.4762V1.86419H15.1562V0.544189H11.1962V1.86419Z" fill="#696969"/>
<path fill-rule="evenodd" clip-rule="evenodd" d="M2.99486 1.9129H5.70829V2.71738H6.51277V3.82186H5.40829V3.01738H3.29486V5.93529H5.40829V5.13081H6.51277V6.23529H5.70829V7.03977H2.99486V6.23529H2.19038V2.71738H2.99486V1.9129ZM3.14486 2.86728H2.34038V6.08519H3.14486V6.88967H5.55829V6.08519H6.36277V5.28072H5.55829V6.08519H3.14486V2.86728H5.55829V3.67176H6.36277V2.86728H5.55829V2.0628H3.14486V2.86728ZM4.35158 7.67265C6.11686 7.67265 7.54789 6.24161 7.54789 4.47634C7.54789 2.71107 6.11686 1.28003 4.35158 1.28003C2.58631 1.28003 1.15527 2.71107 1.15527 4.47634C1.15527 6.24161 2.58631 7.67265 4.35158 7.67265ZM8.70317 4.47634C8.70317 6.87965 6.7549 8.82792 4.35158 8.82792C1.94827 8.82792 0 6.87965 0 4.47634C0 2.07303 1.94827 0.124756 4.35158 0.124756C6.7549 0.124756 8.70317 2.07303 8.70317 4.47634ZM7.69789 4.47624C7.69789 6.32436 6.1997 7.82255 4.35159 7.82255C2.50347 7.82255 1.00528 6.32436 1.00528 4.47624C1.00528 2.62813 2.50347 1.12993 4.35159 1.12993C6.1997 1.12993 7.69789 2.62813 7.69789 4.47624ZM8.55317 4.47624C8.55317 6.79671 6.67206 8.67783 4.35159 8.67783C2.03111 8.67783 0.150002 6.79671 0.150002 4.47624C0.150002 2.15577 2.03111 0.274658 4.35159 0.274658C6.67206 0.274658 8.55317 2.15577 8.55317 4.47624Z" fill="#696969"/>
</svg>
